<?xml version="1.0" encoding="UTF-8" standalone="no"?>
<!DOCTYPE svg PUBLIC "-//W3C//DTD SVG 1.1//EN"
 "http://www.w3.org/Graphics/SVG/1.1/DTD/svg11.dtd">
<!-- Generated by graphviz version 2.38.0 (20140413.2041)
 -->
<!-- Title: SerialMessage Pages: 1 -->
<svg width="141pt" height="248pt"
 viewBox="0.00 0.00 141.00 248.00" xmlns="http://www.w3.org/2000/svg" xmlns:xlink="http://www.w3.org/1999/xlink">
<g id="graph0" class="graph" transform="scale(1 1) rotate(0) translate(4 244)">
<title>SerialMessage</title>
<polygon fill="white" stroke="none" points="-4,4 -4,-244 137,-244 137,4 -4,4"/>
<!-- Node1 -->
<g id="node1" class="node"><title>Node1</title>
<g id="a_node1"><a xlink:title="Класс для создание пакета на стороне ПК">
<polygon fill="#bfbfbf" stroke="black" points="7.5,-0.5 7.5,-112.5 125.5,-112.5 125.5,-0.5 7.5,-0.5"/>
<text text-anchor="middle" x="66.5" y="-100.5" font-family="Helvetica,sans-Serif" font-size="10.00">SerialMessage</text>
<polyline fill="none" stroke="black" points="7.5,-93.5 125.5,-93.5 "/>
<text text-anchor="start" x="15.5" y="-81.5" font-family="Helvetica,sans-Serif" font-size="10.00">&#45; data</text>
<polyline fill="none" stroke="black" points="7.5,-74.5 125.5,-74.5 "/>
<text text-anchor="start" x="15.5" y="-62.5" font-family="Helvetica,sans-Serif" font-size="10.00">+ SerialMessage()</text>
<text text-anchor="start" x="15.5" y="-51.5" font-family="Helvetica,sans-Serif" font-size="10.00">+ SerialMessage()</text>
<text text-anchor="start" x="15.5" y="-40.5" font-family="Helvetica,sans-Serif" font-size="10.00">+ setData()</text>
<text text-anchor="start" x="15.5" y="-29.5" font-family="Helvetica,sans-Serif" font-size="10.00">+ setType()</text>
<text text-anchor="start" x="15.5" y="-18.5" font-family="Helvetica,sans-Serif" font-size="10.00">+ getPackedMessage()</text>
<text text-anchor="start" x="15.5" y="-7.5" font-family="Helvetica,sans-Serif" font-size="10.00">+ toString()</text>
</a>
</g>
</g>
<!-- Node2 -->
<g id="node2" class="node"><title>Node2</title>
<g id="a_node2"><a xlink:href="struct_serial_message_m_c_1_1_header.html" target="_top" xlink:title="Структура, описывающая заголовок пакета.">
<polygon fill="white" stroke="black" points="0,-160.5 0,-239.5 133,-239.5 133,-160.5 0,-160.5"/>
<text text-anchor="middle" x="66.5" y="-227.5" font-family="Helvetica,sans-Serif" font-size="10.00">SerialMessageMC::Header</text>
<polyline fill="none" stroke="black" points="0,-220.5 133,-220.5 "/>
<text text-anchor="start" x="8" y="-208.5" font-family="Helvetica,sans-Serif" font-size="10.00">+ type</text>
<text text-anchor="start" x="8" y="-197.5" font-family="Helvetica,sans-Serif" font-size="10.00">+ length</text>
<text text-anchor="start" x="8" y="-186.5" font-family="Helvetica,sans-Serif" font-size="10.00">+ crc</text>
<polyline fill="none" stroke="black" points="0,-179.5 133,-179.5 "/>
<text text-anchor="middle" x="66.5" y="-167.5" font-family="Helvetica,sans-Serif" font-size="10.00"> </text>
</a>
</g>
</g>
<!-- Node2&#45;&gt;Node1 -->
<g id="edge1" class="edge"><title>Node2&#45;&gt;Node1</title>
<path fill="none" stroke="#404040" d="M66.5,-160.335C66.5,-149.288 66.5,-136.917 66.5,-124.689"/>
<polygon fill="none" stroke="#404040" points="66.5001,-124.562 62.5,-118.562 66.5,-112.562 70.5,-118.562 66.5001,-124.562"/>
<text text-anchor="middle" x="84.5" y="-134" font-family="Helvetica,sans-Serif" font-size="10.00"> &#45;header</text>
</g>
</g>
</svg>
