<?xml version="1.0" encoding="UTF-8" standalone="no"?>
<!DOCTYPE svg PUBLIC "-//W3C//DTD SVG 1.1//EN"
 "http://www.w3.org/Graphics/SVG/1.1/DTD/svg11.dtd">
<!-- Generated by graphviz version 2.38.0 (20140413.2041)
 -->
<!-- Title: SerialMessage::SerialMessage Pages: 1 -->
<svg width="324pt" height="142pt"
 viewBox="0.00 0.00 324.00 142.00" xmlns="http://www.w3.org/2000/svg" xmlns:xlink="http://www.w3.org/1999/xlink">
<g id="graph0" class="graph" transform="scale(1 1) rotate(0) translate(4 138)">
<title>SerialMessage::SerialMessage</title>
<polygon fill="white" stroke="none" points="-4,4 -4,-138 320,-138 320,4 -4,4"/>
<!-- Node1 -->
<g id="node1" class="node"><title>Node1</title>
<g id="a_node1"><a xlink:title="Конструктор с установкой данных">
<polygon fill="#bfbfbf" stroke="black" points="0,-57.5 0,-76.5 152,-76.5 152,-57.5 0,-57.5"/>
<text text-anchor="middle" x="76" y="-64.5" font-family="Helvetica,sans-Serif" font-size="10.00">SerialMessage::SerialMessage</text>
</a>
</g>
</g>
<!-- Node2 -->
<g id="node2" class="node"><title>Node2</title>
<g id="a_node2"><a xlink:href="namespace_serial_message_m_c.html#aa6371d0de8ef050fd15692986d3417e1" target="_top" xlink:title="Функция расчета CRC16.">
<polygon fill="white" stroke="black" points="188,-114.5 188,-133.5 316,-133.5 316,-114.5 188,-114.5"/>
<text text-anchor="middle" x="252" y="-121.5" font-family="Helvetica,sans-Serif" font-size="10.00">SerialMessageMC::Crc16</text>
</a>
</g>
</g>
<!-- Node1&#45;&gt;Node2 -->
<g id="edge1" class="edge"><title>Node1&#45;&gt;Node2</title>
<path fill="none" stroke="midnightblue" d="M104.276,-76.6518C126.688,-84.5067 159.304,-95.7643 188,-105 194.649,-107.14 201.715,-109.341 208.621,-111.453"/>
<polygon fill="midnightblue" stroke="midnightblue" points="207.97,-114.913 218.555,-114.465 210.001,-108.214 207.97,-114.913"/>
</g>
<!-- Node3 -->
<g id="node3" class="node"><title>Node3</title>
<g id="a_node3"><a xlink:href="http://qt-project.org/doc/qt-5/qbytearray.html#data" xlink:title=" ">
<polygon fill="white" stroke="black" points="206,-76.5 206,-95.5 298,-95.5 298,-76.5 206,-76.5"/>
<text text-anchor="middle" x="252" y="-83.5" font-family="Helvetica,sans-Serif" font-size="10.00">QByteArray::data</text>
</a>
</g>
</g>
<!-- Node1&#45;&gt;Node3 -->
<g id="edge2" class="edge"><title>Node1&#45;&gt;Node3</title>
<path fill="none" stroke="midnightblue" d="M152.054,-75.1956C166.567,-76.7803 181.531,-78.4143 195.291,-79.9168"/>
<polygon fill="midnightblue" stroke="midnightblue" points="195.23,-83.4309 205.551,-81.0372 195.99,-76.4722 195.23,-83.4309"/>
</g>
<!-- Node4 -->
<g id="node4" class="node"><title>Node4</title>
<g id="a_node4"><a xlink:href="http://qt-project.org/doc/qt-5/qbytearray.html#length" xlink:title=" ">
<polygon fill="white" stroke="black" points="202,-38.5 202,-57.5 302,-57.5 302,-38.5 202,-38.5"/>
<text text-anchor="middle" x="252" y="-45.5" font-family="Helvetica,sans-Serif" font-size="10.00">QByteArray::length</text>
</a>
</g>
</g>
<!-- Node1&#45;&gt;Node4 -->
<g id="edge3" class="edge"><title>Node1&#45;&gt;Node4</title>
<path fill="none" stroke="midnightblue" d="M152.054,-58.8044C165.336,-57.3541 178.996,-55.8625 191.765,-54.4682"/>
<polygon fill="midnightblue" stroke="midnightblue" points="192.229,-57.9385 201.79,-53.3736 191.469,-50.9798 192.229,-57.9385"/>
</g>
<!-- Node5 -->
<g id="node5" class="node"><title>Node5</title>
<g id="a_node5"><a xlink:href="http://qt-project.org/doc/qt-5/qstring.html#toLatin1" xlink:title=" ">
<polygon fill="white" stroke="black" points="207,-0.5 207,-19.5 297,-19.5 297,-0.5 207,-0.5"/>
<text text-anchor="middle" x="252" y="-7.5" font-family="Helvetica,sans-Serif" font-size="10.00">QString::toLatin1</text>
</a>
</g>
</g>
<!-- Node1&#45;&gt;Node5 -->
<g id="edge4" class="edge"><title>Node1&#45;&gt;Node5</title>
<path fill="none" stroke="midnightblue" d="M104.276,-57.3482C126.688,-49.4933 159.304,-38.2357 188,-29 194.649,-26.8601 201.715,-24.6586 208.621,-22.5469"/>
<polygon fill="midnightblue" stroke="midnightblue" points="210.001,-25.7859 218.555,-19.5351 207.97,-19.087 210.001,-25.7859"/>
</g>
</g>
</svg>
