<?xml version="1.0" encoding="UTF-8" standalone="no"?>
<!DOCTYPE svg PUBLIC "-//W3C//DTD SVG 1.1//EN"
 "http://www.w3.org/Graphics/SVG/1.1/DTD/svg11.dtd">
<!-- Generated by graphviz version 2.38.0 (20140413.2041)
 -->
<!-- Title: SerialMessage::setData Pages: 1 -->
<svg width="293pt" height="142pt"
 viewBox="0.00 0.00 293.00 142.00" xmlns="http://www.w3.org/2000/svg" xmlns:xlink="http://www.w3.org/1999/xlink">
<g id="graph0" class="graph" transform="scale(1 1) rotate(0) translate(4 138)">
<title>SerialMessage::setData</title>
<polygon fill="white" stroke="none" points="-4,4 -4,-138 289,-138 289,4 -4,4"/>
<!-- Node1 -->
<g id="node1" class="node"><title>Node1</title>
<g id="a_node1"><a xlink:title="Сеттер для данных.">
<polygon fill="#bfbfbf" stroke="black" points="0,-57.5 0,-76.5 121,-76.5 121,-57.5 0,-57.5"/>
<text text-anchor="middle" x="60.5" y="-64.5" font-family="Helvetica,sans-Serif" font-size="10.00">SerialMessage::setData</text>
</a>
</g>
</g>
<!-- Node2 -->
<g id="node2" class="node"><title>Node2</title>
<g id="a_node2"><a xlink:href="namespace_serial_message_m_c.html#aa6371d0de8ef050fd15692986d3417e1" target="_top" xlink:title="Функция расчета CRC16.">
<polygon fill="white" stroke="black" points="157,-114.5 157,-133.5 285,-133.5 285,-114.5 157,-114.5"/>
<text text-anchor="middle" x="221" y="-121.5" font-family="Helvetica,sans-Serif" font-size="10.00">SerialMessageMC::Crc16</text>
</a>
</g>
</g>
<!-- Node1&#45;&gt;Node2 -->
<g id="edge1" class="edge"><title>Node1&#45;&gt;Node2</title>
<path fill="none" stroke="midnightblue" d="M84.0626,-76.6131C103.285,-84.6494 131.729,-96.1797 157,-105 163.377,-107.226 170.169,-109.437 176.844,-111.522"/>
<polygon fill="midnightblue" stroke="midnightblue" points="175.892,-114.89 186.478,-114.472 177.941,-108.197 175.892,-114.89"/>
</g>
<!-- Node3 -->
<g id="node3" class="node"><title>Node3</title>
<g id="a_node3"><a xlink:href="http://qt-project.org/doc/qt-5/qbytearray.html#data" xlink:title=" ">
<polygon fill="white" stroke="black" points="175,-76.5 175,-95.5 267,-95.5 267,-76.5 175,-76.5"/>
<text text-anchor="middle" x="221" y="-83.5" font-family="Helvetica,sans-Serif" font-size="10.00">QByteArray::data</text>
</a>
</g>
</g>
<!-- Node1&#45;&gt;Node3 -->
<g id="edge2" class="edge"><title>Node1&#45;&gt;Node3</title>
<path fill="none" stroke="midnightblue" d="M121.422,-74.1831C135.672,-75.8912 150.809,-77.7058 164.835,-79.3871"/>
<polygon fill="midnightblue" stroke="midnightblue" points="164.477,-82.8692 174.822,-80.5844 165.31,-75.9189 164.477,-82.8692"/>
</g>
<!-- Node4 -->
<g id="node4" class="node"><title>Node4</title>
<g id="a_node4"><a xlink:href="http://qt-project.org/doc/qt-5/qbytearray.html#length" xlink:title=" ">
<polygon fill="white" stroke="black" points="171,-38.5 171,-57.5 271,-57.5 271,-38.5 171,-38.5"/>
<text text-anchor="middle" x="221" y="-45.5" font-family="Helvetica,sans-Serif" font-size="10.00">QByteArray::length</text>
</a>
</g>
</g>
<!-- Node1&#45;&gt;Node4 -->
<g id="edge3" class="edge"><title>Node1&#45;&gt;Node4</title>
<path fill="none" stroke="midnightblue" d="M121.422,-59.8169C134.288,-58.2746 147.878,-56.6455 160.72,-55.1061"/>
<polygon fill="midnightblue" stroke="midnightblue" points="161.318,-58.5596 170.83,-53.8942 160.485,-51.6094 161.318,-58.5596"/>
</g>
<!-- Node5 -->
<g id="node5" class="node"><title>Node5</title>
<g id="a_node5"><a xlink:href="http://qt-project.org/doc/qt-5/qstring.html#toLatin1" xlink:title=" ">
<polygon fill="white" stroke="black" points="176,-0.5 176,-19.5 266,-19.5 266,-0.5 176,-0.5"/>
<text text-anchor="middle" x="221" y="-7.5" font-family="Helvetica,sans-Serif" font-size="10.00">QString::toLatin1</text>
</a>
</g>
</g>
<!-- Node1&#45;&gt;Node5 -->
<g id="edge4" class="edge"><title>Node1&#45;&gt;Node5</title>
<path fill="none" stroke="midnightblue" d="M84.0626,-57.3869C103.285,-49.3506 131.729,-37.8203 157,-29 163.377,-26.7742 170.169,-24.563 176.844,-22.4785"/>
<polygon fill="midnightblue" stroke="midnightblue" points="177.941,-25.803 186.478,-19.528 175.892,-19.1098 177.941,-25.803"/>
</g>
</g>
</svg>
