<?xml version="1.0" encoding="UTF-8" standalone="no"?>
<!DOCTYPE svg PUBLIC "-//W3C//DTD SVG 1.1//EN"
 "http://www.w3.org/Graphics/SVG/1.1/DTD/svg11.dtd">
<!-- Generated by graphviz version 2.38.0 (20140413.2041)
 -->
<!-- Title: SerialMessageMC::Crc16 Pages: 1 -->
<svg width="324pt" height="104pt"
 viewBox="0.00 0.00 324.00 104.00" xmlns="http://www.w3.org/2000/svg" xmlns:xlink="http://www.w3.org/1999/xlink">
<g id="graph0" class="graph" transform="scale(1 1) rotate(0) translate(4 100)">
<title>SerialMessageMC::Crc16</title>
<polygon fill="white" stroke="none" points="-4,4 -4,-100 320,-100 320,4 -4,4"/>
<!-- Node1 -->
<g id="node1" class="node"><title>Node1</title>
<g id="a_node1"><a xlink:title="Функция расчета CRC16.">
<polygon fill="#bfbfbf" stroke="black" points="188,-38.5 188,-57.5 316,-57.5 316,-38.5 188,-38.5"/>
<text text-anchor="middle" x="252" y="-45.5" font-family="Helvetica,sans-Serif" font-size="10.00">SerialMessageMC::Crc16</text>
</a>
</g>
</g>
<!-- Node2 -->
<g id="node2" class="node"><title>Node2</title>
<g id="a_node2"><a xlink:href="namespace_serial_message_m_c.html#a270257afa814669e0f0888609c6571c3" target="_top" xlink:title="Проверяет соответствие контрольной суммы из пакета расчитанной контрольной сумме">
<polygon fill="white" stroke="black" points="4.5,-76.5 4.5,-95.5 147.5,-95.5 147.5,-76.5 4.5,-76.5"/>
<text text-anchor="middle" x="76" y="-83.5" font-family="Helvetica,sans-Serif" font-size="10.00">SerialMessageMC::checkCrc</text>
</a>
</g>
</g>
<!-- Node1&#45;&gt;Node2 -->
<g id="edge1" class="edge"><title>Node1&#45;&gt;Node2</title>
<path fill="none" stroke="midnightblue" d="M197.186,-59.7526C172.582,-65.1258 143.813,-71.4086 120.592,-76.4799"/>
<polygon fill="midnightblue" stroke="midnightblue" points="198.07,-63.1421 207.092,-57.589 196.576,-56.3033 198.07,-63.1421"/>
</g>
<!-- Node3 -->
<g id="node3" class="node"><title>Node3</title>
<g id="a_node3"><a xlink:href="class_serial_message.html#aef84d2a1b8928bf39c0f4e59bdf7e36f" target="_top" xlink:title="Конструктор по умолчанию.">
<polygon fill="white" stroke="black" points="0,-38.5 0,-57.5 152,-57.5 152,-38.5 0,-38.5"/>
<text text-anchor="middle" x="76" y="-45.5" font-family="Helvetica,sans-Serif" font-size="10.00">SerialMessage::SerialMessage</text>
</a>
</g>
</g>
<!-- Node1&#45;&gt;Node3 -->
<g id="edge2" class="edge"><title>Node1&#45;&gt;Node3</title>
<path fill="none" stroke="midnightblue" d="M177.533,-48C169.117,-48 160.529,-48 152.093,-48"/>
<polygon fill="midnightblue" stroke="midnightblue" points="177.69,-51.5001 187.69,-48 177.69,-44.5001 177.69,-51.5001"/>
</g>
<!-- Node4 -->
<g id="node4" class="node"><title>Node4</title>
<g id="a_node4"><a xlink:href="class_serial_message.html#a07ebad5adfaf953ee2f98333c577f603" target="_top" xlink:title="Сеттер для данных.">
<polygon fill="white" stroke="black" points="15.5,-0.5 15.5,-19.5 136.5,-19.5 136.5,-0.5 15.5,-0.5"/>
<text text-anchor="middle" x="76" y="-7.5" font-family="Helvetica,sans-Serif" font-size="10.00">SerialMessage::setData</text>
</a>
</g>
</g>
<!-- Node1&#45;&gt;Node4 -->
<g id="edge3" class="edge"><title>Node1&#45;&gt;Node4</title>
<path fill="none" stroke="midnightblue" d="M197.186,-36.2474C172.582,-30.8742 143.813,-24.5914 120.592,-19.5201"/>
<polygon fill="midnightblue" stroke="midnightblue" points="196.576,-39.6967 207.092,-38.411 198.07,-32.8579 196.576,-39.6967"/>
</g>
</g>
</svg>
