<?xml version="1.0" encoding="UTF-8" standalone="no"?>
<!DOCTYPE svg PUBLIC "-//W3C//DTD SVG 1.1//EN"
 "http://www.w3.org/Graphics/SVG/1.1/DTD/svg11.dtd">
<!-- Generated by graphviz version 2.38.0 (20140413.2041)
 -->
<!-- Title: SerialMessageMC::checkCrc Pages: 1 -->
<svg width="333pt" height="104pt"
 viewBox="0.00 0.00 333.00 104.00" xmlns="http://www.w3.org/2000/svg" xmlns:xlink="http://www.w3.org/1999/xlink">
<g id="graph0" class="graph" transform="scale(1 1) rotate(0) translate(4 100)">
<title>SerialMessageMC::checkCrc</title>
<polygon fill="white" stroke="none" points="-4,4 -4,-100 329,-100 329,4 -4,4"/>
<!-- Node1 -->
<g id="node1" class="node"><title>Node1</title>
<g id="a_node1"><a xlink:title="Проверяет соответствие контрольной суммы из пакета расчитанной контрольной сумме">
<polygon fill="#bfbfbf" stroke="black" points="0,-38.5 0,-57.5 143,-57.5 143,-38.5 0,-38.5"/>
<text text-anchor="middle" x="71.5" y="-45.5" font-family="Helvetica,sans-Serif" font-size="10.00">SerialMessageMC::checkCrc</text>
</a>
</g>
</g>
<!-- Node2 -->
<g id="node2" class="node"><title>Node2</title>
<g id="a_node2"><a xlink:href="namespace_serial_message_m_c.html#aa6371d0de8ef050fd15692986d3417e1" target="_top" xlink:title="Функция расчета CRC16.">
<polygon fill="white" stroke="black" points="188,-76.5 188,-95.5 316,-95.5 316,-76.5 188,-76.5"/>
<text text-anchor="middle" x="252" y="-83.5" font-family="Helvetica,sans-Serif" font-size="10.00">SerialMessageMC::Crc16</text>
</a>
</g>
</g>
<!-- Node1&#45;&gt;Node2 -->
<g id="edge1" class="edge"><title>Node1&#45;&gt;Node2</title>
<path fill="none" stroke="midnightblue" d="M117.543,-57.589C141.523,-62.6939 171.198,-69.0113 196.472,-74.3918"/>
<polygon fill="midnightblue" stroke="midnightblue" points="195.771,-77.821 206.281,-76.4799 197.229,-70.9744 195.771,-77.821"/>
</g>
<!-- Node3 -->
<g id="node3" class="node"><title>Node3</title>
<g id="a_node3"><a xlink:href="namespace_serial_message_m_c.html#a71b81f61191599a8fdc5b37675d5e28f" target="_top" xlink:title="Получает указатель на массив данных из пакета">
<polygon fill="white" stroke="black" points="184,-38.5 184,-57.5 320,-57.5 320,-38.5 184,-38.5"/>
<text text-anchor="middle" x="252" y="-45.5" font-family="Helvetica,sans-Serif" font-size="10.00">SerialMessageMC::getData</text>
</a>
</g>
</g>
<!-- Node1&#45;&gt;Node3 -->
<g id="edge2" class="edge"><title>Node1&#45;&gt;Node3</title>
<path fill="none" stroke="midnightblue" d="M143.048,-48C153.134,-48 163.553,-48 173.76,-48"/>
<polygon fill="midnightblue" stroke="midnightblue" points="173.874,-51.5001 183.874,-48 173.874,-44.5001 173.874,-51.5001"/>
</g>
<!-- Node4 -->
<g id="node4" class="node"><title>Node4</title>
<g id="a_node4"><a xlink:href="namespace_serial_message_m_c.html#adc8df29e5d96553fedfa1c0648e05d65" target="_top" xlink:title="Получает заголовок из пакета">
<polygon fill="white" stroke="black" points="179,-0.5 179,-19.5 325,-19.5 325,-0.5 179,-0.5"/>
<text text-anchor="middle" x="252" y="-7.5" font-family="Helvetica,sans-Serif" font-size="10.00">SerialMessageMC::getHeader</text>
</a>
</g>
</g>
<!-- Node1&#45;&gt;Node4 -->
<g id="edge3" class="edge"><title>Node1&#45;&gt;Node4</title>
<path fill="none" stroke="midnightblue" d="M117.543,-38.411C141.523,-33.3061 171.198,-26.9887 196.472,-21.6082"/>
<polygon fill="midnightblue" stroke="midnightblue" points="197.229,-25.0256 206.281,-19.5201 195.771,-18.179 197.229,-25.0256"/>
</g>
</g>
</svg>
