<?xml version="1.0" encoding="UTF-8" standalone="no"?>
<!DOCTYPE svg PUBLIC "-//W3C//DTD SVG 1.1//EN"
 "http://www.w3.org/Graphics/SVG/1.1/DTD/svg11.dtd">
<!-- Generated by graphviz version 2.38.0 (20140413.2041)
 -->
<!-- Title: serialmessage.h Pages: 1 -->
<svg width="400pt" height="140pt"
 viewBox="0.00 0.00 400.00 140.00" xmlns="http://www.w3.org/2000/svg" xmlns:xlink="http://www.w3.org/1999/xlink">
<g id="graph0" class="graph" transform="scale(1 1) rotate(0) translate(4 136)">
<title>serialmessage.h</title>
<polygon fill="white" stroke="none" points="-4,4 -4,-136 396,-136 396,4 -4,4"/>
<!-- Node1 -->
<g id="node1" class="node"><title>Node1</title>
<g id="a_node1"><a xlink:title=" ">
<polygon fill="#bfbfbf" stroke="black" points="186.5,-112.5 186.5,-131.5 274.5,-131.5 274.5,-112.5 186.5,-112.5"/>
<text text-anchor="middle" x="230.5" y="-119.5" font-family="Helvetica,sans-Serif" font-size="10.00">serialmessage.h</text>
</a>
</g>
</g>
<!-- Node2 -->
<g id="node2" class="node"><title>Node2</title>
<g id="a_node2"><a xlink:href="serialmessagemc_8h.html" target="_top" xlink:title=" ">
<polygon fill="white" stroke="black" points="0,-56.5 0,-75.5 101,-75.5 101,-56.5 0,-56.5"/>
<text text-anchor="middle" x="50.5" y="-63.5" font-family="Helvetica,sans-Serif" font-size="10.00">serialmessagemc.h</text>
</a>
</g>
</g>
<!-- Node1&#45;&gt;Node2 -->
<g id="edge1" class="edge"><title>Node1&#45;&gt;Node2</title>
<path fill="none" stroke="midnightblue" d="M201.978,-112.444C171.434,-103.28 122.792,-88.6876 88.8973,-78.5192"/>
<polygon fill="midnightblue" stroke="midnightblue" points="89.4721,-75.0376 78.8881,-75.5164 87.4606,-81.7424 89.4721,-75.0376"/>
</g>
<!-- Node4 -->
<g id="node4" class="node"><title>Node4</title>
<g id="a_node4"><a xlink:title=" ">
<polygon fill="white" stroke="#bfbfbf" points="119.5,-56.5 119.5,-75.5 187.5,-75.5 187.5,-56.5 119.5,-56.5"/>
<text text-anchor="middle" x="153.5" y="-63.5" font-family="Helvetica,sans-Serif" font-size="10.00">QByteArray</text>
</a>
</g>
</g>
<!-- Node1&#45;&gt;Node4 -->
<g id="edge3" class="edge"><title>Node1&#45;&gt;Node4</title>
<path fill="none" stroke="midnightblue" d="M218.129,-112.324C206.342,-104.058 188.368,-91.4527 174.364,-81.6322"/>
<polygon fill="midnightblue" stroke="midnightblue" points="176.038,-78.5307 165.841,-75.6545 172.018,-84.2619 176.038,-78.5307"/>
</g>
<!-- Node5 -->
<g id="node5" class="node"><title>Node5</title>
<g id="a_node5"><a xlink:title=" ">
<polygon fill="white" stroke="#bfbfbf" points="205.5,-56.5 205.5,-75.5 255.5,-75.5 255.5,-56.5 205.5,-56.5"/>
<text text-anchor="middle" x="230.5" y="-63.5" font-family="Helvetica,sans-Serif" font-size="10.00">QString</text>
</a>
</g>
</g>
<!-- Node1&#45;&gt;Node5 -->
<g id="edge4" class="edge"><title>Node1&#45;&gt;Node5</title>
<path fill="none" stroke="midnightblue" d="M230.5,-112.083C230.5,-105.006 230.5,-94.8611 230.5,-85.9865"/>
<polygon fill="midnightblue" stroke="midnightblue" points="234,-85.751 230.5,-75.7511 227,-85.7511 234,-85.751"/>
</g>
<!-- Node6 -->
<g id="node6" class="node"><title>Node6</title>
<g id="a_node6"><a xlink:title=" ">
<polygon fill="white" stroke="#bfbfbf" points="274,-56.5 274,-75.5 315,-75.5 315,-56.5 274,-56.5"/>
<text text-anchor="middle" x="294.5" y="-63.5" font-family="Helvetica,sans-Serif" font-size="10.00">string</text>
</a>
</g>
</g>
<!-- Node1&#45;&gt;Node6 -->
<g id="edge5" class="edge"><title>Node1&#45;&gt;Node6</title>
<path fill="none" stroke="midnightblue" d="M240.783,-112.324C250.336,-104.263 264.78,-92.0765 276.284,-82.3695"/>
<polygon fill="midnightblue" stroke="midnightblue" points="278.644,-84.9577 284.03,-75.8339 274.13,-79.6076 278.644,-84.9577"/>
</g>
<!-- Node7 -->
<g id="node7" class="node"><title>Node7</title>
<g id="a_node7"><a xlink:title=" ">
<polygon fill="white" stroke="#bfbfbf" points="333,-56.5 333,-75.5 392,-75.5 392,-56.5 333,-56.5"/>
<text text-anchor="middle" x="362.5" y="-63.5" font-family="Helvetica,sans-Serif" font-size="10.00">stdexcept</text>
</a>
</g>
</g>
<!-- Node1&#45;&gt;Node7 -->
<g id="edge6" class="edge"><title>Node1&#45;&gt;Node7</title>
<path fill="none" stroke="midnightblue" d="M251.416,-112.444C273.236,-103.517 307.65,-89.4387 332.392,-79.3168"/>
<polygon fill="midnightblue" stroke="midnightblue" points="333.752,-82.5422 341.682,-75.5164 331.101,-76.0634 333.752,-82.5422"/>
</g>
<!-- Node3 -->
<g id="node3" class="node"><title>Node3</title>
<g id="a_node3"><a xlink:title=" ">
<polygon fill="white" stroke="#bfbfbf" points="26,-0.5 26,-19.5 75,-19.5 75,-0.5 26,-0.5"/>
<text text-anchor="middle" x="50.5" y="-7.5" font-family="Helvetica,sans-Serif" font-size="10.00">stdint.h</text>
</a>
</g>
</g>
<!-- Node2&#45;&gt;Node3 -->
<g id="edge2" class="edge"><title>Node2&#45;&gt;Node3</title>
<path fill="none" stroke="midnightblue" d="M50.5,-56.083C50.5,-49.0059 50.5,-38.8611 50.5,-29.9865"/>
<polygon fill="midnightblue" stroke="midnightblue" points="54.0001,-29.751 50.5,-19.7511 47.0001,-29.7511 54.0001,-29.751"/>
</g>
</g>
</svg>
