<?xml version="1.0" encoding="UTF-8" standalone="no"?>
<!DOCTYPE svg PUBLIC "-//W3C//DTD SVG 1.1//EN"
 "http://www.w3.org/Graphics/SVG/1.1/DTD/svg11.dtd">
<!-- Generated by graphviz version 2.38.0 (20140413.2041)
 -->
<!-- Title: serialmessagemc.h Pages: 1 -->
<svg width="257pt" height="140pt"
 viewBox="0.00 0.00 257.00 140.00" xmlns="http://www.w3.org/2000/svg" xmlns:xlink="http://www.w3.org/1999/xlink">
<g id="graph0" class="graph" transform="scale(1 1) rotate(0) translate(4 136)">
<title>serialmessagemc.h</title>
<polygon fill="white" stroke="none" points="-4,4 -4,-136 253,-136 253,4 -4,4"/>
<!-- Node1 -->
<g id="node1" class="node"><title>Node1</title>
<g id="a_node1"><a xlink:title=" ">
<polygon fill="#bfbfbf" stroke="black" points="83.5,-112.5 83.5,-131.5 184.5,-131.5 184.5,-112.5 83.5,-112.5"/>
<text text-anchor="middle" x="134" y="-119.5" font-family="Helvetica,sans-Serif" font-size="10.00">serialmessagemc.h</text>
</a>
</g>
</g>
<!-- Node2 -->
<g id="node2" class="node"><title>Node2</title>
<g id="a_node2"><a xlink:href="serialmessage_8h.html" target="_top" xlink:title=" ">
<polygon fill="white" stroke="black" points="31,-56.5 31,-75.5 119,-75.5 119,-56.5 31,-56.5"/>
<text text-anchor="middle" x="75" y="-63.5" font-family="Helvetica,sans-Serif" font-size="10.00">serialmessage.h</text>
</a>
</g>
</g>
<!-- Node1&#45;&gt;Node2 -->
<g id="edge1" class="edge"><title>Node1&#45;&gt;Node2</title>
<path fill="none" stroke="midnightblue" d="M117.105,-105.537C106.585,-95.9087 93.4313,-83.8694 84.6519,-75.8339"/>
<polygon fill="midnightblue" stroke="midnightblue" points="114.781,-108.154 124.521,-112.324 119.507,-102.99 114.781,-108.154"/>
</g>
<!-- Node5 -->
<g id="node5" class="node"><title>Node5</title>
<g id="a_node5"><a xlink:href="serialmessagemc_8cpp.html" target="_top" xlink:title=" ">
<polygon fill="white" stroke="black" points="137,-56.5 137,-75.5 249,-75.5 249,-56.5 137,-56.5"/>
<text text-anchor="middle" x="193" y="-63.5" font-family="Helvetica,sans-Serif" font-size="10.00">serialmessagemc.cpp</text>
</a>
</g>
</g>
<!-- Node1&#45;&gt;Node5 -->
<g id="edge4" class="edge"><title>Node1&#45;&gt;Node5</title>
<path fill="none" stroke="midnightblue" d="M150.895,-105.537C161.415,-95.9087 174.569,-83.8694 183.348,-75.8339"/>
<polygon fill="midnightblue" stroke="midnightblue" points="148.493,-102.99 143.479,-112.324 153.219,-108.154 148.493,-102.99"/>
</g>
<!-- Node3 -->
<g id="node3" class="node"><title>Node3</title>
<g id="a_node3"><a xlink:href="main_8cpp_source.html" target="_top" xlink:title=" ">
<polygon fill="white" stroke="black" points="0,-0.5 0,-19.5 56,-19.5 56,-0.5 0,-0.5"/>
<text text-anchor="middle" x="28" y="-7.5" font-family="Helvetica,sans-Serif" font-size="10.00">main.cpp</text>
</a>
</g>
</g>
<!-- Node2&#45;&gt;Node3 -->
<g id="edge2" class="edge"><title>Node2&#45;&gt;Node3</title>
<path fill="none" stroke="midnightblue" d="M60.5792,-48.4314C52.3419,-38.9673 42.3461,-27.4827 35.6167,-19.7511"/>
<polygon fill="midnightblue" stroke="midnightblue" points="58.0336,-50.8378 67.2389,-56.083 63.3137,-46.2421 58.0336,-50.8378"/>
</g>
<!-- Node4 -->
<g id="node4" class="node"><title>Node4</title>
<g id="a_node4"><a xlink:href="serialmessage_8cpp.html" target="_top" xlink:title=" ">
<polygon fill="white" stroke="black" points="74,-0.5 74,-19.5 172,-19.5 172,-0.5 74,-0.5"/>
<text text-anchor="middle" x="123" y="-7.5" font-family="Helvetica,sans-Serif" font-size="10.00">serialmessage.cpp</text>
</a>
</g>
</g>
<!-- Node2&#45;&gt;Node4 -->
<g id="edge3" class="edge"><title>Node2&#45;&gt;Node4</title>
<path fill="none" stroke="midnightblue" d="M89.7277,-48.4314C98.1401,-38.9673 108.349,-27.4827 115.221,-19.7511"/>
<polygon fill="midnightblue" stroke="midnightblue" points="86.954,-46.2836 82.9262,-56.083 92.1858,-50.9342 86.954,-46.2836"/>
</g>
</g>
</svg>
